# xmcd
# 
# Track frame offsets:
#     150
#     18952
#     34339
#     63542
#     97485
#     118943
#     138374
#     151380
#     186472
#     215346
# 
# Disc length: 4034
# 
# Revision: 2
# Processed by: cddbd v1.5.2PL0 Copyright (c) Steve Scherf et al.
# Submitted via: BonkEnc v1.0.8
# 
DISCID=980fc00a
DTITLE=Albert King - I Wanna Get Funky
DYEAR=1973
DGENRE=Blues
TTITLE0=I Wanna Get Funky
TTITLE1=Playing On Me
TTITLE2=Walking The Back Streets And Crying
TTITLE3='Til My Back Ain't Got No Bone
TTITLE4=Flat Tire
TTITLE5=I Can't Hear Nothing But The Blues
TTITLE6=Travelin' Man
TTITLE7=Crosscut Saw
TTITLE8=That's What The Blues Is All About
TTITLE9=multimediatrack incl.: video, biography and pictures
EXTD=YEAR: 1973
EXTT0=
EXTT1=
EXTT2=
EXTT3=
EXTT4=
EXTT5=
EXTT6=
EXTT7=
EXTT8=
EXTT9=
PLAYORDER=
